<?xml version="1.0" encoding="UTF-8"?>
<svg width="156px" height="43px" viewBox="0 0 156 43" version="1.1" xmlns="http://www.w3.org/2000/svg" xmlns:xlink="http://www.w3.org/1999/xlink">
    <!-- Generator: Sketch 62 (91390) - https://sketch.com -->
    <title>appstore</title>
    <desc>Created with Sketch.</desc>
    <g id="Symbols" stroke="none" stroke-width="1" fill="none" fill-rule="evenodd">
        <g id="img_store" transform="translate(0.000000, -1.000000)">
            <g id="Group-4">
                <g id="appstore" transform="translate(0.000000, 1.000000)">
                    <g id="Download_on_the_App_Store_Badge_US-UK_135x40">
                        <g id="Group" fill-rule="nonzero">
                            <path d="M150.222222,43 L5.77777778,43 C2.54222222,43 0,40.635 0,37.625 L0,5.375 C0,2.365 2.54222222,0 5.77777778,0 L150.222222,0 C153.457778,0 156,2.365 156,5.375 L156,37.625 C156,40.635 153.457778,43 150.222222,43 Z" id="Shape" fill="#4B505A"></path>
                            <g transform="translate(13.866667, 6.625185)" fill="#FFFFFF" id="Shape">
                                <path d="M20.9479111,15.2202588 C20.9144,11.6614301 23.9974222,9.9300484 24.1384,9.84944198 C22.3923556,7.41689481 19.6860444,7.08453136 18.7350222,7.05803062 C16.4620444,6.82946173 14.2572444,8.35767111 13.0993778,8.35767111 C11.9184,8.35767111 10.1353778,7.08011457 8.21368889,7.11765728 C5.7408,7.1540958 3.42737778,8.52219654 2.15857778,10.6466726 C-0.459911111,14.9784395 1.49297778,21.3441383 4.00168889,24.8455486 C5.25662222,26.5603674 6.72302222,28.4750459 8.6424,28.4076899 C10.5201778,28.3337086 11.2216,27.2637412 13.4876444,27.2637412 C15.7328889,27.2637412 16.3915556,28.4076899 18.3490667,28.3646262 C20.3643556,28.3337086 21.6331556,26.642078 22.8441778,24.9118005 C24.2944,22.9463289 24.8768,21.0106706 24.8999111,20.9112928 C24.8525333,20.8958341 20.9860444,19.4857738 20.9479111,15.2202588 Z"></path>
                                <path d="M17.2501333,4.75467457 C18.2600889,3.54778667 18.9511111,1.90584494 18.7592889,0.239610864 C17.2975111,0.301445926 15.4694222,1.2057837 14.4167111,2.38617086 C13.4853333,3.42632494 12.6533333,5.13120593 12.8682667,6.73450074 C14.5103111,6.85154568 16.1962667,5.94279111 17.2501333,4.75467457 Z"></path>
                            </g>
                            <g transform="translate(48.533333, 19.875556)" fill="#FFFFFF" id="Shape">
                                <path d="M13.4564444,14.9110835 L10.8321778,14.9110835 L9.39466667,10.5947753 L4.39804444,10.5947753 L3.02871111,14.9110835 L0.473777778,14.9110835 L5.42417778,0.216422716 L8.48177778,0.216422716 L13.4564444,14.9110835 Z M8.96133333,8.78389136 L7.66133333,4.94680494 C7.52382222,4.55481481 7.26613333,3.63170568 6.88595556,2.17858173 L6.83973333,2.17858173 C6.68835556,2.80355753 6.44453333,3.72666667 6.10942222,4.94680494 L4.83253333,8.78389136 L8.96133333,8.78389136 L8.96133333,8.78389136 Z"></path>
                                <path d="M26.1872,9.4828484 C26.1872,11.2848988 25.6776,12.7093136 24.6584,13.7549886 C23.7455111,14.6858272 22.6119111,15.1506943 21.2587556,15.1506943 C19.7981333,15.1506943 18.7488889,14.6493886 18.1098667,13.6467773 L18.0636444,13.6467773 L18.0636444,19.2284958 L15.6,19.2284958 L15.6,7.80336395 C15.6,6.67045728 15.5688,5.50773728 15.5087111,4.31520395 L17.6753778,4.31520395 L17.8128889,5.9946884 L17.8591111,5.9946884 C18.6807111,4.72927802 19.9275556,4.09767704 21.6008,4.09767704 C22.9088889,4.09767704 24.0008889,4.59125333 24.8744889,5.57951012 C25.7504,6.56887111 26.1872,7.8696158 26.1872,9.4828484 Z M23.6773333,9.5689758 C23.6773333,8.53765531 23.4346667,7.68742321 22.9470222,7.01827951 C22.4143111,6.32042667 21.6990222,5.97150025 20.8023111,5.97150025 C20.1944889,5.97150025 19.6421333,6.16583901 19.1487111,6.54899556 C18.6541333,6.93546469 18.3305778,7.44008296 18.1792,8.06505877 C18.1029333,8.35656691 18.0648,8.59507358 18.0648,8.78278716 L18.0648,10.5495032 C18.0648,11.3202331 18.3120889,11.9706054 18.8066667,12.5017244 C19.3012444,13.0328435 19.9437333,13.2978509 20.7341333,13.2978509 C21.6620444,13.2978509 22.3842667,12.9555496 22.9008,12.2731556 C23.4184889,11.5896573 23.6773333,10.6886321 23.6773333,9.5689758 Z"></path>
                                <path d="M38.9410667,9.4828484 C38.9410667,11.2848988 38.4314667,12.7093136 37.4111111,13.7549886 C36.4993778,14.6858272 35.3657778,15.1506943 34.0126222,15.1506943 C32.552,15.1506943 31.5027556,14.6493886 30.8648889,13.6467773 L30.8186667,13.6467773 L30.8186667,19.2284958 L28.3550222,19.2284958 L28.3550222,7.80336395 C28.3550222,6.67045728 28.3238222,5.50773728 28.2637333,4.31520395 L30.4304,4.31520395 L30.5679111,5.9946884 L30.6141333,5.9946884 C31.4345778,4.72927802 32.6814222,4.09767704 34.3558222,4.09767704 C35.6627556,4.09767704 36.7547556,4.59125333 37.6306667,5.57951012 C38.5031111,6.56887111 38.9410667,7.8696158 38.9410667,9.4828484 Z M36.4312,9.5689758 C36.4312,8.53765531 36.1873778,7.68742321 35.6997333,7.01827951 C35.1670222,6.32042667 34.4540444,5.97150025 33.5561778,5.97150025 C32.9472,5.97150025 32.396,6.16583901 31.9014222,6.54899556 C31.4068444,6.93546469 31.0844444,7.44008296 30.9330667,8.06505877 C30.8579556,8.35656691 30.8186667,8.59507358 30.8186667,8.78278716 L30.8186667,10.5495032 C30.8186667,11.3202331 31.0659556,11.9706054 31.5582222,12.5017244 C32.0528,13.0317393 32.6952889,13.2978509 33.488,13.2978509 C34.4159111,13.2978509 35.1381333,12.9555496 35.6546667,12.2731556 C36.1723556,11.5896573 36.4312,10.6886321 36.4312,9.5689758 Z"></path>
                                <path d="M53.2006222,10.7902183 C53.2006222,12.0401699 52.7464889,13.0571358 51.8347556,13.8422202 C50.8328889,14.7001817 49.4381333,15.1286104 47.6458667,15.1286104 C45.9911111,15.1286104 44.6645333,14.8238519 43.6603556,14.2132306 L44.2312,12.2510716 C45.3128,12.8760474 46.4995556,13.1896395 47.7926222,13.1896395 C48.7205333,13.1896395 49.4427556,12.9886756 49.9616,12.588956 C50.4781333,12.1892365 50.7358222,11.6525965 50.7358222,10.9834528 C50.7358222,10.3871862 50.5232,9.8847763 50.0968,9.47732741 C49.6727111,9.06987852 48.9643556,8.69113877 47.9752,8.34110815 C45.2827556,7.38156049 43.9376889,5.97591704 43.9376889,4.12749037 C43.9376889,2.91949827 44.4091556,1.92903309 45.3532444,1.15830321 C46.2938667,0.386469136 47.5488,0.00110419753 49.1180444,0.00110419753 C50.5174222,0.00110419753 51.6799111,0.234089877 52.6078222,0.698957037 L51.9919111,2.61805235 C51.1252444,2.16753975 50.1453333,1.94228346 49.0487111,1.94228346 C48.1820444,1.94228346 47.5048889,2.14656 47.0195556,2.55290469 C46.6093333,2.91618568 46.4036444,3.35896889 46.4036444,3.88346272 C46.4036444,4.46427062 46.6382222,4.94459654 47.1096889,5.3222321 C47.5199111,5.67115852 48.2652444,6.04879407 49.3468444,6.45624296 C50.6699556,6.96527802 51.6417778,7.56044049 52.2669333,8.24283457 C52.8897778,8.92302025 53.2006222,9.77435654 53.2006222,10.7902183 Z"></path>
                                <path d="M61.3461333,6.08192 L58.6305778,6.08192 L58.6305778,11.2263763 C58.6305778,12.5348504 59.1089778,13.1885353 60.0680889,13.1885353 C60.5083556,13.1885353 60.8735111,13.1520968 61.1624,13.0792198 L61.2305778,14.8669156 C60.7452444,15.0402746 60.1062222,15.1275062 59.3146667,15.1275062 C58.3416889,15.1275062 57.5813333,14.8437274 57.0324444,14.2772741 C56.4858667,13.7097165 56.2108444,12.7578983 56.2108444,11.4207151 L56.2108444,6.0797116 L54.5930667,6.0797116 L54.5930667,4.31299556 L56.2108444,4.31299556 L56.2108444,2.37292049 L58.6305778,1.67506765 L58.6305778,4.31299556 L61.3461333,4.31299556 L61.3461333,6.08192 Z"></path>
                                <path d="M73.5984889,9.5259121 C73.5984889,11.1546035 73.1108444,12.4917867 72.1378667,13.5374617 C71.1175111,14.6140543 69.7632,15.1506943 68.0749333,15.1506943 C66.4479111,15.1506943 65.1525333,14.6350341 64.1864889,13.6037136 C63.2204444,12.5723931 62.7374222,11.2705442 62.7374222,9.70147951 C62.7374222,8.05953778 63.2343111,6.71462519 64.2315556,5.66895012 C65.2264889,4.62217086 66.5692444,4.09878123 68.2575111,4.09878123 C69.8845333,4.09878123 71.1937778,4.61444148 72.1817778,5.64686617 C73.1270222,6.64837333 73.5984889,7.94138864 73.5984889,9.5259121 Z M71.0424,9.60210173 C71.0424,8.62488691 70.824,7.78680099 70.3814222,7.08784395 C69.8648889,6.24202864 69.1264889,5.82022519 68.1696889,5.82022519 C67.1793778,5.82022519 66.4271111,6.24313284 65.9105778,7.08784395 C65.468,7.78790519 65.2496,8.63924148 65.2496,9.64626963 C65.2496,10.6234844 65.468,11.4615704 65.9105778,12.1594232 C66.4432889,13.0052385 67.1874667,13.427042 68.1477333,13.427042 C69.0883556,13.427042 69.8267556,12.9964049 70.3594667,12.1373393 C70.8136,11.4251319 71.0424,10.5782123 71.0424,9.60210173 Z"></path>
                                <path d="M81.6064889,6.38557432 C81.3626667,6.34251062 81.1026667,6.32042667 80.8299556,6.32042667 C79.9632889,6.32042667 79.2930667,6.63291457 78.8216,7.25899457 C78.4113778,7.81109333 78.2056889,8.50894617 78.2056889,9.35144889 L78.2056889,14.9110835 L75.7432,14.9110835 L75.7663111,7.65208889 C75.7663111,6.43084642 75.7351111,5.31891951 75.6738667,4.31630815 L77.8197333,4.31630815 L77.9098667,6.34361481 L77.9780444,6.34361481 C78.2380444,5.64686617 78.6482667,5.08593383 79.2098667,4.66523457 C79.7587556,4.28649481 80.3515556,4.09767704 80.9905778,4.09767704 C81.2182222,4.09767704 81.4239111,4.1131358 81.6064889,4.14074074 L81.6064889,6.38557432 Z"></path>
                                <path d="M92.6247111,9.11183802 C92.6247111,9.53364148 92.5958222,9.88919309 92.5345778,10.179597 L85.1436444,10.179597 C85.1725333,11.2263763 85.5296,12.0269195 86.216,12.5790183 C86.8388444,13.0725946 87.6442667,13.3199348 88.6334222,13.3199348 C89.7277333,13.3199348 90.7261333,13.153201 91.624,12.8186291 L92.0099556,14.4528415 C90.9607111,14.8901037 89.7219556,15.1076306 88.2925333,15.1076306 C86.5730667,15.1076306 85.2233778,14.6239921 84.2411556,13.6578193 C83.2612444,12.6916464 82.7701333,11.3942143 82.7701333,9.76662716 C82.7701333,8.16885333 83.2265778,6.83829531 84.1406222,5.77716148 C85.0974222,4.64425481 86.3904889,4.07780148 88.0175111,4.07780148 C89.6156444,4.07780148 90.8255111,4.64425481 91.6471111,5.77716148 C92.2976889,6.67708247 92.6247111,7.79011358 92.6247111,9.11183802 Z M90.2754667,8.50121679 C90.2916444,7.80336395 90.1310222,7.2004721 89.7970667,6.69143704 C89.3706667,6.0366479 88.7154667,5.70980543 87.8337778,5.70980543 C87.0283556,5.70980543 86.3731556,6.02891852 85.8728,6.66935309 C85.4625778,7.17838815 85.2187556,7.78900938 85.1436444,8.50011259 L90.2754667,8.50011259 L90.2754667,8.50121679 Z"></path>
                            </g>
                            <g transform="translate(49.688889, 6.625185)" fill="#FFFFFF" id="Shape">
                                <path d="M6.99111111,4.4267279 C6.99111111,5.7263684 6.5832,6.70468741 5.76853333,7.36168494 C5.01395556,7.96788938 3.9416,8.2715437 2.55262222,8.2715437 C1.86391111,8.2715437 1.27457778,8.24283457 0.781155556,8.1854163 L0.781155556,1.08432198 C1.4248,0.984944198 2.11813333,0.934151111 2.86693333,0.934151111 C4.19004444,0.934151111 5.18728889,1.2090963 5.85982222,1.75898667 C6.61324444,2.38064988 6.99111111,3.26952889 6.99111111,4.4267279 Z M5.71422222,4.45874963 C5.71422222,3.61624691 5.4808,2.97029136 5.01395556,2.51977877 C4.54711111,2.07037037 3.86533333,1.84511407 2.96746667,1.84511407 C2.58613333,1.84511407 2.26142222,1.86940642 1.99217778,1.92019951 L1.99217778,7.31862123 C2.14124444,7.34070519 2.41395556,7.35064296 2.81031111,7.35064296 C3.73706667,7.35064296 4.45235556,7.10440691 4.95617778,6.61193481 C5.46,6.11946272 5.71422222,5.40173432 5.71422222,4.45874963 Z"></path>
                                <path d="M13.7615111,5.56184296 C13.7615111,6.36238617 13.5223111,7.01827951 13.0439111,7.53283556 C12.5424,8.06174617 11.8779556,8.32564938 11.0482667,8.32564938 C10.2486222,8.32564938 9.61191111,8.07278815 9.13697778,7.56485728 C8.6632,7.05803062 8.42631111,6.41870025 8.42631111,5.64797037 C8.42631111,4.84190617 8.67013333,4.18049185 9.16008889,3.66704 C9.65004444,3.15358815 10.3087111,2.89631012 11.1384,2.89631012 C11.9380444,2.89631012 12.5805333,3.14917136 13.0670222,3.65599802 C13.5292444,4.14847012 13.7615111,4.7844879 13.7615111,5.56184296 Z M12.5054222,5.59938568 C12.5054222,5.11905975 12.3968,4.70719407 12.1807111,4.36378864 C11.9264889,3.94861037 11.5648,3.74102123 11.0944889,3.74102123 C10.608,3.74102123 10.2382222,3.94861037 9.984,4.36378864 C9.76675556,4.70719407 9.65928889,5.12568494 9.65928889,5.62036543 C9.65928889,6.10069136 9.76791111,6.51255704 9.984,6.85596247 C10.2463111,7.27114074 10.6114667,7.47872988 11.0829333,7.47872988 C11.5451556,7.47872988 11.908,7.26782815 12.1691556,6.84492049 C12.3933333,6.49488988 12.5054222,6.0797116 12.5054222,5.59938568 Z"></path>
                                <path d="M22.8395556,3.00231309 L21.1351111,8.20750025 L20.0257778,8.20750025 L19.3197333,5.9472079 C19.1406222,5.38296296 18.9950222,4.82203062 18.8817778,4.26551506 L18.8598222,4.26551506 C18.7546667,4.83748938 18.6090667,5.39731753 18.4218667,5.9472079 L17.6719111,8.20750025 L16.5498667,8.20750025 L14.9471111,3.00231309 L16.1916444,3.00231309 L16.8075556,5.47681975 C16.9566222,6.06204444 17.0791111,6.6196642 17.1773333,7.14747062 L17.1992889,7.14747062 C17.2894222,6.71241679 17.4384889,6.15810963 17.6488,5.48786173 L18.4218667,3.00341728 L19.4087111,3.00341728 L20.1494222,5.43486025 C20.3285333,6.02781432 20.4741333,6.59868444 20.5862222,7.14857481 L20.6197333,7.14857481 C20.7017778,6.61303901 20.8254222,6.04216889 20.9895111,5.43486025 L21.6504889,3.00341728 L22.8395556,3.00341728 L22.8395556,3.00231309 Z"></path>
                                <path d="M29.1176889,8.20750025 L27.9066667,8.20750025 L27.9066667,5.22616691 C27.9066667,4.30747457 27.5415111,3.8481284 26.8088889,3.8481284 C26.4495111,3.8481284 26.1594667,3.97400691 25.9341333,4.22686815 C25.7111111,4.47972938 25.5978667,4.77786272 25.5978667,5.11905975 L25.5978667,8.20639605 L24.3868444,8.20639605 L24.3868444,4.48966716 C24.3868444,4.03252938 24.3718222,3.53674469 24.3429333,3.00010469 L25.4072,3.00010469 L25.4638222,3.81389827 L25.4973333,3.81389827 C25.6383111,3.56103704 25.8486222,3.3523437 26.1248,3.18560988 C26.4529778,2.99127111 26.8204444,2.89299753 27.2225778,2.89299753 C27.7310222,2.89299753 28.1539556,3.04979358 28.4902222,3.36448988 C28.9085333,3.74985481 29.1176889,4.32514173 29.1176889,5.08924642 L29.1176889,8.20750025 L29.1176889,8.20750025 Z"></path>
                                <polygon points="32.4572444 8.20750025 31.2473778 8.20750025 31.2473778 0.613933827 32.4572444 0.613933827"></polygon>
                                <path d="M39.5870222,5.56184296 C39.5870222,6.36238617 39.3478222,7.01827951 38.8694222,7.53283556 C38.3679111,8.06174617 37.7023111,8.32564938 36.8737778,8.32564938 C36.0729778,8.32564938 35.4362667,8.07278815 34.9624889,7.56485728 C34.4887111,7.05803062 34.2518222,6.41870025 34.2518222,5.64797037 C34.2518222,4.84190617 34.4956444,4.18049185 34.9856,3.66704 C35.4755556,3.15358815 36.1342222,2.89631012 36.9627556,2.89631012 C37.7635556,2.89631012 38.4048889,3.14917136 38.8925333,3.65599802 C39.3547556,4.14847012 39.5870222,4.7844879 39.5870222,5.56184296 Z M38.3297778,5.59938568 C38.3297778,5.11905975 38.2211556,4.70719407 38.0050667,4.36378864 C37.752,3.94861037 37.3891556,3.74102123 36.92,3.74102123 C36.4323556,3.74102123 36.0625778,3.94861037 35.8095111,4.36378864 C35.5922667,4.70719407 35.4848,5.12568494 35.4848,5.62036543 C35.4848,6.10069136 35.5934222,6.51255704 35.8095111,6.85596247 C36.0718222,7.27114074 36.4369778,7.47872988 36.9084444,7.47872988 C37.3706667,7.47872988 37.7323556,7.26782815 37.9935111,6.84492049 C38.2188444,6.49488988 38.3297778,6.0797116 38.3297778,5.59938568 Z"></path>
                                <path d="M45.448,8.20750025 L44.3606222,8.20750025 L44.2704889,7.60792099 L44.2369778,7.60792099 C43.8648889,8.08603852 43.3344889,8.32564938 42.6457778,8.32564938 C42.1315556,8.32564938 41.7155556,8.16774914 41.4024,7.85415704 C41.1181333,7.56927407 40.976,7.21482667 40.976,6.79412741 C40.976,6.15810963 41.2533333,5.67336691 41.8114667,5.33769086 C42.3684444,5.00201481 43.1519111,4.83748938 44.1607111,4.84521877 L44.1607111,4.74804938 C44.1607111,4.06234272 43.784,3.72004148 43.0294222,3.72004148 C42.4920889,3.72004148 42.0183111,3.84923259 41.6092444,4.10540642 L41.3631111,3.34571852 C41.8692444,3.04648099 42.4944,2.89631012 43.2316444,2.89631012 C44.6552889,2.89631012 45.3694222,3.61403852 45.3694222,5.04949531 L45.3694222,6.96638222 C45.3694222,7.48645926 45.396,7.90053333 45.448,8.20750025 Z M44.1907556,6.41870025 L44.1907556,5.61594864 C42.8549333,5.59386469 42.1870222,5.94389531 42.1870222,6.6649363 C42.1870222,6.93656889 42.2632889,7.13974123 42.4192889,7.27555753 C42.5752889,7.41137383 42.7740444,7.47872988 43.0109333,7.47872988 C43.2767111,7.47872988 43.5251556,7.39812346 43.7516444,7.23801481 C43.9792889,7.07680198 44.1191111,6.87252543 44.1711111,6.62187259 C44.1838222,6.56555852 44.1907556,6.49709827 44.1907556,6.41870025 Z"></path>
                                <path d="M52.3293333,8.20750025 L51.2546667,8.20750025 L51.1980444,7.37162272 L51.1645333,7.37162272 C50.8213333,8.00764049 50.2366222,8.32564938 49.4150222,8.32564938 C48.7586667,8.32564938 48.2120889,8.07941333 47.7787556,7.58694123 C47.3454222,7.09446914 47.1293333,6.45513877 47.1293333,5.67005432 C47.1293333,4.8275516 47.3639111,4.14515753 47.8353778,3.6239763 C48.2918222,3.13812938 48.8511111,2.89520593 49.5167111,2.89520593 C50.2481778,2.89520593 50.7600889,3.1304 51.0512889,3.60189235 L51.0744,3.60189235 L51.0744,0.613933827 L52.2865778,0.613933827 L52.2865778,6.80516938 C52.2865778,7.31199605 52.3004444,7.7790716 52.3293333,8.20750025 Z M51.0744,6.01235556 L51.0744,5.1444563 C51.0744,4.99428543 51.0628444,4.8728237 51.0408889,4.78007111 C50.9727111,4.50181333 50.8259556,4.26772346 50.6029333,4.07890568 C50.3776,3.8900879 50.1060444,3.79512691 49.7928889,3.79512691 C49.3410667,3.79512691 48.9874667,3.96627753 48.7274667,4.30968296 C48.4697778,4.6530884 48.3392,5.09145481 48.3392,5.62699062 C48.3392,6.14154667 48.4628444,6.55893333 48.7112889,6.88025481 C48.9736,7.22255605 49.3272,7.39370667 49.7697778,7.39370667 C50.1672889,7.39370667 50.4850667,7.25126519 50.7265778,6.96527802 C50.96,6.70137481 51.0744,6.38336593 51.0744,6.01235556 Z"></path>
                                <path d="M62.6865778,5.56184296 C62.6865778,6.36238617 62.4473778,7.01827951 61.9689778,7.53283556 C61.4674667,8.06174617 60.8041778,8.32564938 59.9733333,8.32564938 C59.1748444,8.32564938 58.5381333,8.07278815 58.0620444,7.56485728 C57.5882667,7.05803062 57.3513778,6.41870025 57.3513778,5.64797037 C57.3513778,4.84190617 57.5952,4.18049185 58.0851556,3.66704 C58.5751111,3.15358815 59.2337778,2.89631012 60.0646222,2.89631012 C60.8631111,2.89631012 61.5067556,3.14917136 61.9920889,3.65599802 C62.4543111,4.14847012 62.6865778,4.7844879 62.6865778,5.56184296 Z M61.4316444,5.59938568 C61.4316444,5.11905975 61.3230222,4.70719407 61.1069333,4.36378864 C60.8515556,3.94861037 60.4910222,3.74102123 60.0195556,3.74102123 C59.5342222,3.74102123 59.1644444,3.94861037 58.9090667,4.36378864 C58.6918222,4.70719407 58.5843556,5.12568494 58.5843556,5.62036543 C58.5843556,6.10069136 58.6929778,6.51255704 58.9090667,6.85596247 C59.1713778,7.27114074 59.5365333,7.47872988 60.008,7.47872988 C60.4702222,7.47872988 60.8342222,7.26782815 61.0953778,6.84492049 C61.3184,6.49488988 61.4316444,6.0797116 61.4316444,5.59938568 Z"></path>
                                <path d="M69.1981333,8.20750025 L67.9882667,8.20750025 L67.9882667,5.22616691 C67.9882667,4.30747457 67.6231111,3.8481284 66.8893333,3.8481284 C66.5299556,3.8481284 66.2399111,3.97400691 66.0157333,4.22686815 C65.7915556,4.47972938 65.6794667,4.77786272 65.6794667,5.11905975 L65.6794667,8.20639605 L64.4672889,8.20639605 L64.4672889,4.48966716 C64.4672889,4.03252938 64.4534222,3.53674469 64.4245333,3.00010469 L65.4876444,3.00010469 L65.5442667,3.81389827 L65.5777778,3.81389827 C65.7199111,3.56103704 65.9302222,3.3523437 66.2052444,3.18560988 C66.5345778,2.99127111 66.9008889,2.89299753 67.3041778,2.89299753 C67.8114667,2.89299753 68.2344,3.04979358 68.5706667,3.36448988 C68.9901333,3.74985481 69.1981333,4.32514173 69.1981333,5.08924642 L69.1981333,8.20750025 L69.1981333,8.20750025 Z"></path>
                                <path d="M77.3482667,3.86910815 L76.0147556,3.86910815 L76.0147556,6.39772049 C76.0147556,7.04036346 76.2516444,7.36168494 76.7208,7.36168494 C76.9380444,7.36168494 77.1183111,7.34401778 77.2604444,7.30757926 L77.2916444,8.1854163 C77.0524444,8.2715437 76.7381333,8.31460741 76.3510222,8.31460741 C75.8726222,8.31460741 75.5005333,8.17547852 75.2312889,7.89722074 C74.9608889,7.61896296 74.8268444,7.15078321 74.8268444,6.49378568 L74.8268444,3.86910815 L74.0306667,3.86910815 L74.0306667,3.00231309 L74.8268444,3.00231309 L74.8268444,2.04828642 L76.0136,1.70598519 L76.0136,3.00120889 L77.3471111,3.00120889 L77.3471111,3.86910815 L77.3482667,3.86910815 Z"></path>
                                <path d="M83.7592889,8.20750025 L82.5471111,8.20750025 L82.5471111,5.24825086 C82.5471111,4.31520395 82.1819556,3.8481284 81.4504889,3.8481284 C80.8888889,3.8481284 80.5052444,4.11865679 80.2949333,4.65971358 C80.2591111,4.77344593 80.2383111,4.91257481 80.2383111,5.07599605 L80.2383111,8.20639605 L79.0284444,8.20639605 L79.0284444,0.613933827 L80.2383111,0.613933827 L80.2383111,3.75095901 L80.2614222,3.75095901 C80.6427556,3.18008889 81.1893333,2.89520593 81.8976889,2.89520593 C82.3992,2.89520593 82.8140444,3.05200198 83.1433778,3.36669827 C83.5536,3.7586884 83.7592889,4.34170469 83.7592889,5.11243457 L83.7592889,8.20750025 L83.7592889,8.20750025 Z"></path>
                                <path d="M90.3725333,5.35867062 C90.3725333,5.56625975 90.3563556,5.74072296 90.3274667,5.88316444 L86.6955556,5.88316444 C86.7117333,6.39772049 86.8850667,6.78971062 87.2213333,7.06134321 C87.5287111,7.30426667 87.9250667,7.4257284 88.4104,7.4257284 C88.9477333,7.4257284 89.4376889,7.34401778 89.8791111,7.17949235 L90.0686222,7.98334815 C89.5520889,8.19756247 88.9442667,8.30466963 88.2405333,8.30466963 C87.3969778,8.30466963 86.7325333,8.06726716 86.2518222,7.59246222 C85.7688,7.11765728 85.5296,6.48053531 85.5296,5.6810963 C85.5296,4.89601185 85.7526222,4.24232691 86.2021333,3.72114568 C86.6712889,3.16463012 87.3056889,2.88637235 88.1064889,2.88637235 C88.8899556,2.88637235 89.4850667,3.16463012 89.8872,3.72114568 C90.2119111,4.16282469 90.3725333,4.70940247 90.3725333,5.35867062 Z M89.2169778,5.05943309 C89.2262222,4.71602765 89.1464889,4.42010272 88.9824,4.17055407 C88.7720889,3.84923259 88.452,3.68801975 88.0186667,3.68801975 C87.6234667,3.68801975 87.3010667,3.8448158 87.0549333,4.1595121 C86.8538667,4.41016494 86.7348444,4.70940247 86.6955556,5.05943309 L89.2169778,5.05943309 Z"></path>
                            </g>
                        </g>
                    </g>
                </g>
            </g>
        </g>
    </g>
</svg>