<?xml version="1.0" encoding="UTF-8"?>
<svg width="156px" height="45px" viewBox="0 0 156 45" version="1.1" xmlns="http://www.w3.org/2000/svg" xmlns:xlink="http://www.w3.org/1999/xlink">
    <!-- Generator: Sketch 62 (91390) - https://sketch.com -->
    <title>google-play-badge</title>
    <desc>Created with Sketch.</desc>
    <defs>
        <linearGradient x1="61.6300891%" y1="4.8392%" x2="24.8007422%" y2="71.9688%" id="linearGradient-1">
            <stop stop-color="#00A0FF" offset="0%"></stop>
            <stop stop-color="#00A1FF" offset="0.657445%"></stop>
            <stop stop-color="#00BEFF" offset="26.01%"></stop>
            <stop stop-color="#00D2FF" offset="51.22%"></stop>
            <stop stop-color="#00DFFF" offset="76.04%"></stop>
            <stop stop-color="#00E3FF" offset="100%"></stop>
        </linearGradient>
        <linearGradient x1="107.727094%" y1="49.4294118%" x2="-130.66601%" y2="49.4294118%" id="linearGradient-2">
            <stop stop-color="#FFE000" offset="0%"></stop>
            <stop stop-color="#FFBD00" offset="40.87%"></stop>
            <stop stop-color="#FFA500" offset="77.54%"></stop>
            <stop stop-color="#FF9C00" offset="100%"></stop>
        </linearGradient>
        <linearGradient x1="86.3886228%" y1="31.8306006%" x2="-49.8886228%" y2="131.516588%" id="linearGradient-3">
            <stop stop-color="#FF3A44" offset="0%"></stop>
            <stop stop-color="#C31162" offset="100%"></stop>
        </linearGradient>
        <linearGradient x1="-18.5796407%" y1="-8.46302281%" x2="42.2742515%" y2="35.844198%" id="linearGradient-4">
            <stop stop-color="#32A071" offset="0%"></stop>
            <stop stop-color="#2DA771" offset="6.85%"></stop>
            <stop stop-color="#15CF74" offset="47.62%"></stop>
            <stop stop-color="#06E775" offset="80.09%"></stop>
            <stop stop-color="#00F076" offset="100%"></stop>
        </linearGradient>
    </defs>
    <g id="Symbols" stroke="none" stroke-width="1" fill="none" fill-rule="evenodd">
        <g id="img_store" transform="translate(-174.000000, 0.000000)">
            <g id="Group-4">
                <g id="google-play-badge" transform="translate(174.000000, 0.000000)">
                    <g>
                        <path d="M150.222222,45 L5.77777778,45 C2.54222222,45 0,42.525 0,39.375 L0,5.625 C0,2.475 2.54222222,0 5.77777778,0 L150.222222,0 C153.457778,0 156,2.475 156,5.625 L156,39.375 C156,42.525 153.457778,45 150.222222,45 Z" id="Shape" fill="#4B505A" fill-rule="nonzero"></path>
                        <g id="Group" transform="translate(47.377778, 6.750000)" fill="#FFFFFF" fill-rule="nonzero" stroke="#FFFFFF" stroke-width="0.5">
                            <path d="M7.39555556,4.725 C7.39555556,5.625 7.16444444,6.4125 6.58666667,6.975 C5.89333333,7.65 5.08444444,7.9875 4.04444444,7.9875 C3.00444444,7.9875 2.19555556,7.65 1.50222222,6.975 C0.808888889,6.3 0.462222222,5.5125 0.462222222,4.5 C0.462222222,3.4875 0.808888889,2.7 1.50222222,2.025 C2.19555556,1.35 3.00444444,1.0125 4.04444444,1.0125 C4.50666667,1.0125 4.96888889,1.125 5.43111111,1.35 C5.89333333,1.575 6.24,1.8 6.47111111,2.1375 L5.89333333,2.7 C5.43111111,2.1375 4.85333333,1.9125 4.04444444,1.9125 C3.35111111,1.9125 2.65777778,2.1375 2.19555556,2.7 C1.61777778,3.15 1.38666667,3.825 1.38666667,4.6125 C1.38666667,5.4 1.61777778,6.075 2.19555556,6.525 C2.77333333,6.975 3.35111111,7.3125 4.04444444,7.3125 C4.85333333,7.3125 5.43111111,7.0875 6.00888889,6.525 C6.35555556,6.1875 6.58666667,5.7375 6.58666667,5.175 L4.04444444,5.175 L4.04444444,4.275 L7.39555556,4.275 C7.39555556,4.3875 7.39555556,4.6125 7.39555556,4.725 Z" id="Shape"></path>
                            <polygon id="Shape" points="12.7111111 1.9125 9.59111111 1.9125 9.59111111 4.05 12.48 4.05 12.48 4.8375 9.59111111 4.8375 9.59111111 6.975 12.7111111 6.975 12.7111111 7.875 8.66666667 7.875 8.66666667 1.125 12.7111111 1.125"></polygon>
                            <polygon id="Shape" points="16.5244444 7.875 15.6 7.875 15.6 1.9125 13.6355556 1.9125 13.6355556 1.125 18.4888889 1.125 18.4888889 1.9125 16.5244444 1.9125"></polygon>
                            <polygon id="Shape" points="21.84 7.875 21.84 1.125 22.7644444 1.125 22.7644444 7.875"></polygon>
                            <polygon id="Shape" points="26.6933333 7.875 25.7688889 7.875 25.7688889 1.9125 23.8044444 1.9125 23.8044444 1.125 28.5422222 1.125 28.5422222 1.9125 26.5777778 1.9125 26.5777778 7.875"></polygon>
                            <path d="M37.6711111,6.975 C36.9777778,7.65 36.1688889,7.9875 35.1288889,7.9875 C34.0888889,7.9875 33.28,7.65 32.5866667,6.975 C31.8933333,6.3 31.5466667,5.5125 31.5466667,4.5 C31.5466667,3.4875 31.8933333,2.7 32.5866667,2.025 C33.28,1.35 34.0888889,1.0125 35.1288889,1.0125 C36.1688889,1.0125 36.9777778,1.35 37.6711111,2.025 C38.3644444,2.7 38.7111111,3.4875 38.7111111,4.5 C38.7111111,5.5125 38.3644444,6.3 37.6711111,6.975 Z M33.28,6.4125 C33.7422222,6.8625 34.4355556,7.2 35.1288889,7.2 C35.8222222,7.2 36.5155556,6.975 36.9777778,6.4125 C37.44,5.9625 37.7866667,5.2875 37.7866667,4.5 C37.7866667,3.7125 37.5555556,3.0375 36.9777778,2.5875 C36.5155556,2.1375 35.8222222,1.8 35.1288889,1.8 C34.4355556,1.8 33.7422222,2.025 33.28,2.5875 C32.8177778,3.0375 32.4711111,3.7125 32.4711111,4.5 C32.4711111,5.2875 32.7022222,5.9625 33.28,6.4125 Z" id="Shape"></path>
                            <polygon id="Shape" points="39.9822222 7.875 39.9822222 1.125 41.0222222 1.125 44.3733333 6.4125 44.3733333 6.4125 44.3733333 5.0625 44.3733333 1.125 45.2977778 1.125 45.2977778 7.875 44.3733333 7.875 40.7911111 2.3625 40.7911111 2.3625 40.7911111 3.7125 40.7911111 7.875"></polygon>
                        </g>
                        <path d="M78.6933333,24.525 C75.92,24.525 73.7244444,26.55 73.7244444,29.3625 C73.7244444,32.0625 75.92,34.2 78.6933333,34.2 C81.4666667,34.2 83.6622222,32.175 83.6622222,29.3625 C83.6622222,26.4375 81.4666667,24.525 78.6933333,24.525 Z M78.6933333,32.175 C77.1911111,32.175 75.92,30.9375 75.92,29.25 C75.92,27.5625 77.1911111,26.325 78.6933333,26.325 C80.1955556,26.325 81.4666667,27.45 81.4666667,29.25 C81.4666667,30.9375 80.1955556,32.175 78.6933333,32.175 Z M67.9466667,24.525 C65.1733333,24.525 62.9777778,26.55 62.9777778,29.3625 C62.9777778,32.0625 65.1733333,34.2 67.9466667,34.2 C70.72,34.2 72.9155556,32.175 72.9155556,29.3625 C72.9155556,26.4375 70.72,24.525 67.9466667,24.525 Z M67.9466667,32.175 C66.4444444,32.175 65.1733333,30.9375 65.1733333,29.25 C65.1733333,27.5625 66.4444444,26.325 67.9466667,26.325 C69.4488889,26.325 70.72,27.45 70.72,29.25 C70.72,30.9375 69.4488889,32.175 67.9466667,32.175 Z M55.12,25.9875 L55.12,28.0125 L60.0888889,28.0125 C59.9733333,29.1375 59.5111111,30.0375 58.9333333,30.6 C58.24,31.275 57.0844444,32.0625 55.12,32.0625 C52,32.0625 49.6888889,29.7 49.6888889,26.6625 C49.6888889,23.625 52.1155556,21.2625 55.12,21.2625 C56.7377778,21.2625 58.0088889,21.9375 58.9333333,22.725 L60.4355556,21.2625 C59.1644444,20.1375 57.5466667,19.2375 55.2355556,19.2375 C51.0755556,19.2375 47.4933333,22.6125 47.4933333,26.6625 C47.4933333,30.7125 51.0755556,34.0875 55.2355556,34.0875 C57.5466667,34.0875 59.1644444,33.4125 60.5511111,31.95 C61.9377778,30.6 62.4,28.6875 62.4,27.225 C62.4,26.775 62.4,26.325 62.2844444,25.9875 L55.12,25.9875 L55.12,25.9875 Z M107.582222,27.5625 C107.12,26.4375 105.964444,24.525 103.422222,24.525 C100.88,24.525 98.8,26.4375 98.8,29.3625 C98.8,32.0625 100.88,34.2 103.653333,34.2 C105.848889,34.2 107.235556,32.85 107.697778,32.0625 L106.08,30.9375 C105.502222,31.725 104.808889,32.2875 103.653333,32.2875 C102.497778,32.2875 101.804444,31.8375 101.226667,30.825 L107.813333,28.125 L107.582222,27.5625 Z M100.88,29.1375 C100.88,27.3375 102.382222,26.325 103.422222,26.325 C104.231111,26.325 105.04,26.775 105.271111,27.3375 L100.88,29.1375 Z M95.4488889,33.75 L97.6444444,33.75 L97.6444444,19.6875 L95.4488889,19.6875 L95.4488889,33.75 Z M91.9822222,25.5375 L91.9822222,25.5375 C91.4044444,24.975 90.48,24.4125 89.3244444,24.4125 C86.8977778,24.4125 84.5866667,26.55 84.5866667,29.25 C84.5866667,31.95 86.7822222,33.975 89.3244444,33.975 C90.48,33.975 91.4044444,33.4125 91.8666667,32.85 L91.9822222,32.85 L91.9822222,33.525 C91.9822222,35.325 90.9422222,36.3375 89.3244444,36.3375 C88.0533333,36.3375 87.1288889,35.4375 86.8977778,34.65 L85.0488889,35.4375 C85.6266667,36.675 87.0133333,38.25 89.44,38.25 C91.9822222,38.25 94.0622222,36.7875 94.0622222,33.3 L94.0622222,24.75 L91.9822222,24.75 L91.9822222,25.5375 L91.9822222,25.5375 Z M89.44,32.175 C87.9377778,32.175 86.6666667,30.9375 86.6666667,29.25 C86.6666667,27.5625 87.9377778,26.325 89.44,26.325 C90.9422222,26.325 92.0977778,27.5625 92.0977778,29.25 C92.0977778,30.9375 90.9422222,32.175 89.44,32.175 Z M117.635556,19.6875 L112.435556,19.6875 L112.435556,33.75 L114.631111,33.75 L114.631111,28.4625 L117.635556,28.4625 C120.062222,28.4625 122.373333,26.775 122.373333,24.075 C122.373333,21.375 120.062222,19.6875 117.635556,19.6875 Z M117.751111,26.4375 L114.631111,26.4375 L114.631111,21.6 L117.751111,21.6 C119.368889,21.6 120.293333,22.95 120.293333,23.9625 C120.177778,25.2 119.253333,26.4375 117.751111,26.4375 Z M131.04,24.4125 C129.422222,24.4125 127.804444,25.0875 127.226667,26.55 L129.191111,27.3375 C129.653333,26.55 130.346667,26.325 131.155556,26.325 C132.311111,26.325 133.351111,27 133.466667,28.125 L133.466667,28.2375 C133.12,28.0125 132.195556,27.675 131.271111,27.675 C129.191111,27.675 127.111111,28.8 127.111111,30.825 C127.111111,32.7375 128.844444,33.975 130.693333,33.975 C132.195556,33.975 132.888889,33.3 133.466667,32.625 L133.582222,32.625 L133.582222,33.75 L135.662222,33.75 L135.662222,28.35 C135.431111,25.875 133.466667,24.4125 131.04,24.4125 Z M130.808889,32.175 C130.115556,32.175 129.075556,31.8375 129.075556,30.9375 C129.075556,29.8125 130.346667,29.475 131.386667,29.475 C132.311111,29.475 132.773333,29.7 133.351111,29.925 C133.12,31.275 131.964444,32.175 130.808889,32.175 Z M142.942222,24.75 L140.515556,30.825 L140.4,30.825 L137.857778,24.75 L135.546667,24.75 L139.36,33.3 L137.164444,38.025 L139.36,38.025 L145.253333,24.75 L142.942222,24.75 L142.942222,24.75 Z M123.528889,33.75 L125.724444,33.75 L125.724444,19.6875 L123.528889,19.6875 L123.528889,33.75 Z" id="Shape" fill="#FFFFFF" fill-rule="nonzero"></path>
                        <g id="Group" transform="translate(11.555556, 7.875000)" fill-rule="nonzero">
                            <path d="M0.462222222,0.5625 C0.115555556,0.9 0,1.4625 0,2.1375 L0,27 C0,27.675 0.231111111,28.2375 0.577777778,28.575 L0.693333333,28.6875 L15.0222222,14.7375 L15.0222222,14.625 L15.0222222,14.5125 L0.462222222,0.5625 L0.462222222,0.5625 Z" id="Shape" fill="url(#linearGradient-1)"></path>
                            <path d="M19.6444444,19.4625 L14.9066667,14.85 L14.9066667,14.625 L14.9066667,14.5125 L19.6444444,9.9 L19.76,10.0125 L25.4222222,13.1625 C27.04,14.0625 27.04,15.525 25.4222222,16.425 L19.6444444,19.4625 L19.6444444,19.4625 Z" id="Shape" fill="url(#linearGradient-2)"></path>
                            <path d="M19.76,19.35 L14.9066667,14.625 L0.462222222,28.6875 C1.04,29.25 1.84888889,29.25 2.88888889,28.8 L19.76,19.35" id="Shape" fill="url(#linearGradient-3)"></path>
                            <path d="M19.76,9.9 L2.88888889,0.5625 C1.84888889,5.55111512e-17 1.04,0.1125 0.462222222,0.675 L14.9066667,14.625 L19.76,9.9 Z" id="Shape" fill="url(#linearGradient-4)"></path>
                            <g transform="translate(0.000000, 19.125000)" fill="#000000" id="Shape">
                                <path d="M19.6444444,0.1125 L2.88888889,9.3375 C1.96444444,9.9 1.15555556,9.7875 0.577777778,9.3375 L0.577777778,9.3375 L0.462222222,9.45 L0.462222222,9.45 L0.577777778,9.5625 L0.577777778,9.5625 C1.15555556,10.0125 1.96444444,10.125 2.88888889,9.5625 L19.6444444,0.1125 L19.6444444,0.1125 Z" opacity="0.2"></path>
                                <path d="M0.462222222,9.3375 C0.115555556,9 0,8.4375 0,7.7625 L0,7.875 C0,8.55 0.231111111,9.1125 0.577777778,9.45 L0.577777778,9.3375 L0.462222222,9.3375 Z" opacity="0.12"></path>
                            </g>
                            <path d="M25.4222222,16.0875 L19.6444444,19.2375 L19.76,19.35 L25.4222222,16.2 C26.2311111,15.75 26.5777778,15.1875 26.5777778,14.625 L26.5777778,14.625 C26.5777778,15.1875 26.1155556,15.6375 25.4222222,16.0875 Z" id="Shape" fill="#000000" opacity="0.12"></path>
                            <path d="M2.88888889,0.675 L25.4222222,13.1625 C26.1155556,13.6125 26.5777778,14.0625 26.5777778,14.625 L26.5777778,14.625 C26.5777778,14.0625 26.2311111,13.5 25.4222222,13.05 L2.88888889,0.5625 C1.27111111,-0.3375 0,0.3375 0,2.1375 L0,2.25 C0,0.5625 1.27111111,-0.225 2.88888889,0.675 Z" id="Shape" fill="#FFFFFF" opacity="0.25"></path>
                        </g>
                    </g>
                </g>
            </g>
        </g>
    </g>
</svg>